<svg width="17" height="17" viewBox="0 0 17 17" fill="none" xmlns="http://www.w3.org/2000/svg">
<g id="fi-rr-shopping-cart-add" clip-path="url(#clip0_300_136)">
<path id="Vector" d="M4.95829 17C5.7407 17 6.37496 16.3658 6.37496 15.5834C6.37496 14.801 5.7407 14.1667 4.95829 14.1667C4.17589 14.1667 3.54163 14.801 3.54163 15.5834C3.54163 16.3658 4.17589 17 4.95829 17Z" fill="#4A6375"/>
<path id="Vector_2" d="M12.0417 17C12.8241 17 13.4583 16.3658 13.4583 15.5834C13.4583 14.801 12.8241 14.1667 12.0417 14.1667C11.2593 14.1667 10.625 14.801 10.625 15.5834C10.625 16.3658 11.2593 17 12.0417 17Z" fill="#4A6375"/>
<path id="Vector_3" d="M16.2917 2.125H14.875V0.708333C14.875 0.520472 14.8004 0.340304 14.6676 0.207466C14.5347 0.0746278 14.3546 0 14.1667 0C13.9788 0 13.7987 0.0746278 13.6658 0.207466C13.533 0.340304 13.4584 0.520472 13.4584 0.708333V2.125H12.0417C11.8538 2.125 11.6737 2.19963 11.5408 2.33247C11.408 2.4653 11.3334 2.64547 11.3334 2.83333C11.3334 3.02119 11.408 3.20136 11.5408 3.3342C11.6737 3.46704 11.8538 3.54167 12.0417 3.54167H13.4584V4.95833C13.4584 5.14619 13.533 5.32636 13.6658 5.4592C13.7987 5.59204 13.9788 5.66667 14.1667 5.66667C14.3546 5.66667 14.5347 5.59204 14.6676 5.4592C14.8004 5.32636 14.875 5.14619 14.875 4.95833V3.54167H16.2917C16.4796 3.54167 16.6597 3.46704 16.7926 3.3342C16.9254 3.20136 17 3.02119 17 2.83333C17 2.64547 16.9254 2.4653 16.7926 2.33247C16.6597 2.19963 16.4796 2.125 16.2917 2.125Z" fill="#4A6375"/>
<path id="Vector_4" d="M15.4211 6.88925C15.3295 6.87211 15.2355 6.87332 15.1443 6.89281C15.0532 6.9123 14.9669 6.94968 14.8903 7.00279C14.8138 7.05589 14.7485 7.12367 14.6983 7.20218C14.6482 7.28069 14.6141 7.36838 14.598 7.46017C14.5097 7.95044 14.2519 8.3941 13.8697 8.71363C13.4875 9.03316 13.0052 9.20826 12.507 9.20833H3.83775L3.17192 3.54167H9.20833C9.39619 3.54167 9.57636 3.46704 9.7092 3.3342C9.84204 3.20136 9.91667 3.02119 9.91667 2.83333C9.91667 2.64547 9.84204 2.4653 9.7092 2.33247C9.57636 2.19963 9.39619 2.125 9.20833 2.125H3.00475L2.975 1.87567C2.91396 1.35901 2.6655 0.882692 2.27672 0.53699C1.88793 0.191288 1.38584 0.000221592 0.865583 0L0.708333 0C0.520472 0 0.340304 0.0746278 0.207466 0.207466C0.0746278 0.340304 0 0.520472 0 0.708333C0 0.896195 0.0746278 1.07636 0.207466 1.2092C0.340304 1.34204 0.520472 1.41667 0.708333 1.41667H0.865583C1.03908 1.41669 1.20653 1.48039 1.33618 1.59567C1.46583 1.71096 1.54866 1.86982 1.56896 2.04212L2.54362 10.3296C2.64481 11.1915 3.05892 11.9863 3.70735 12.563C4.35578 13.1398 5.1934 13.4584 6.06121 13.4583H13.4583C13.6462 13.4583 13.8264 13.3837 13.9592 13.2509C14.092 13.118 14.1667 12.9379 14.1667 12.75C14.1667 12.5621 14.092 12.382 13.9592 12.2491C13.8264 12.1163 13.6462 12.0417 13.4583 12.0417H6.06121C5.6217 12.0417 5.19298 11.9056 4.8341 11.6518C4.47522 11.3981 4.20384 11.0394 4.05733 10.625H12.507C13.3373 10.6251 14.1412 10.3335 14.7783 9.80108C15.4155 9.2687 15.8453 8.5294 15.9927 7.71233C16.0093 7.62075 16.0076 7.52681 15.9879 7.43587C15.9681 7.34493 15.9306 7.25878 15.8775 7.18234C15.8244 7.1059 15.7568 7.04068 15.6785 6.99039C15.6002 6.94009 15.5127 6.90573 15.4211 6.88925Z" fill="#4A6375"/>
</g>
<defs>
<clipPath id="clip0_300_136">
<rect width="17" height="17" fill="white"/>
</clipPath>
</defs>
</svg>
