<svg width="20" height="20" viewBox="0 0 20 20" fill="none" xmlns="http://www.w3.org/2000/svg">
<g id="u:search">
<path id="Vector" d="M18.0917 16.9083L15 13.8417C16.2001 12.3454 16.7813 10.4461 16.6241 8.53443C16.4668 6.62276 15.5831 4.844 14.1546 3.56388C12.7262 2.28377 10.8615 1.5996 8.94414 1.65207C7.02674 1.70454 5.20231 2.48965 3.84599 3.84596C2.48968 5.20228 1.70457 7.02671 1.6521 8.94411C1.59963 10.8615 2.2838 12.7262 3.56391 14.1546C4.84403 15.5831 6.62279 16.4668 8.53446 16.624C10.4461 16.7813 12.3454 16.2001 13.8417 15L16.9084 18.0667C16.9858 18.1448 17.078 18.2068 17.1796 18.2491C17.2811 18.2914 17.39 18.3132 17.5 18.3132C17.6101 18.3132 17.719 18.2914 17.8205 18.2491C17.9221 18.2068 18.0142 18.1448 18.0917 18.0667C18.2419 17.9113 18.3259 17.7036 18.3259 17.4875C18.3259 17.2714 18.2419 17.0637 18.0917 16.9083V16.9083ZM9.16671 15C8.01298 15 6.88517 14.6579 5.92588 14.0169C4.9666 13.3759 4.21892 12.4649 3.77741 11.399C3.3359 10.3331 3.22038 9.16021 3.44546 8.02865C3.67054 6.8971 4.22611 5.8577 5.04192 5.04189C5.85773 4.22608 6.89713 3.67051 8.02868 3.44543C9.16024 3.22035 10.3331 3.33587 11.399 3.77738C12.4649 4.21889 13.376 4.96657 14.0169 5.92585C14.6579 6.88514 15 8.01295 15 9.16668C15 10.7138 14.3855 12.1975 13.2915 13.2915C12.1975 14.3854 10.7138 15 9.16671 15V15Z" fill="#667479"/>
</g>
</svg>
